<?xml version="1.0" encoding="UTF-8"?>
<svg version="1.1" xmlns="http://www.w3.org/2000/svg" width="35" height="35">
<path d="M0 0 C5.64262572 5.3532603 8.50635005 11.68588762 8.875 19.4375 C8.50516077 27.21411948 5.64311427 33.5488876 -0.0625 38.875 C-5.94362366 43.34921692 -11.85421766 45.0311522 -19.2265625 44.79296875 C-25.40897867 43.92207112 -31.40619849 40.90196267 -35.75 36.4375 C-40.31663041 30.23622348 -42.128234 24.13567439 -41.75 16.4375 C-40.5033799 9.57015421 -37.37207801 3.27344749 -31.82421875 -1.0703125 C-21.86911966 -7.6320539 -9.57018912 -7.32814915 0 0 Z " fill="#F5840A" transform="translate(41.75,5.5625)"/>
<path d="M0 0 C4.88061612 0.27256495 6.93664855 2.53767108 10.1875 6 C13.25987953 9.44502706 13.25987953 9.44502706 17 12 C15.37938967 15.99432781 12.60660827 18.79558321 9.625 21.8125 C8.90183594 22.5849707 8.90183594 22.5849707 8.1640625 23.37304688 C6.7265625 24.83203125 6.7265625 24.83203125 4 27 C1.6484375 26.82421875 1.6484375 26.82421875 0 26 C-0.9375 23.9375 -0.9375 23.9375 -1 21 C1.07391145 18.37232162 3.47290372 16.18678905 6 14 C4.69628054 11.03815191 3.42071276 9.24229694 0.875 7.25 C-0.07375 6.5075 -1.0225 5.765 -2 5 C-1.125 1.125 -1.125 1.125 0 0 Z " fill="#0D0700" transform="translate(11,12)"/>
<path d="M0 0 C4.16298878 1.40641513 7.1170529 4.67193503 10.25 7.625 C10.80429687 8.140625 11.35859375 8.65625 11.9296875 9.1875 C13.2902712 10.45425035 14.64565837 11.72657815 16 13 C14.02532838 15.35997339 12.03064825 17.68880166 10 20 C9.11828125 21.01900391 9.11828125 21.01900391 8.21875 22.05859375 C6.55048384 23.87685753 4.98251559 25.52925007 3 27 C0.0625 26.9375 0.0625 26.9375 -2 26 C-1.68232368 20.59950264 1.19996327 18.47662935 5 15 C3.4169423 10.7257442 0.49431596 8.73468206 -3 6 C-2.625 3.5625 -2.625 3.5625 -2 1 C-1.34 0.67 -0.68 0.34 0 0 Z " fill="#FFFBF7" transform="translate(27,11)"/>
<path d="M0 0 C0.66 0.33 1.32 0.66 2 1 C-0.31 3.31 -2.62 5.62 -5 8 C-5.66 7.67 -6.32 7.34 -7 7 C-4.66666667 4.66666667 -2.33333333 2.33333333 0 0 Z " fill="#BC7B31" transform="translate(12,3)"/>
</svg>
